<?xml version="1.0" encoding="iso-8859-1"?>
<!-- Generator: Adobe Illustrator 16.0.0, SVG Export Plug-In . SVG Version: 6.00 Build 0)  -->
<!DOCTYPE svg PUBLIC "-//W3C//DTD SVG 1.1//EN">
<svg version="1.1" id="Capa_1" xmlns="http://www.w3.org/2000/svg" x="0px" y="0px"
	 width="612px" height="612px" viewBox="0 0 612 612" style="enable-background:new 0 0 612 612;" xml:space="preserve">
<g>
	<g>
		<path d="M262.05,93.7c3.8,3.8,9.6,3.8,13.4,0c3.8-3.8,3.8-9.6,0-13.4l-26.8-26.8c-3.8-3.8-9.6-3.8-13.4,0c-3.8,3.8-3.8,9.6,0,13.4
			L262.05,93.7z"/>
		<path d="M363.35,57.4c5.699,0,9.6-3.8,9.6-9.6V9.6c0-5.7-3.799-9.6-9.6-9.6s-9.6,3.8-9.6,9.6v38.2
			C353.85,53.5,357.65,57.4,363.35,57.4z"/>
		<path d="M487.65,181.7c0,5.7,3.799,9.6,9.6,9.6h38.199c5.701,0,9.6-3.8,9.6-9.6c0-5.8-3.799-9.6-9.6-9.6H497.25
			C491.549,172.1,487.65,177.9,487.65,181.7z"/>
		<path d="M464.75,93.7l26.799-26.8c3.801-3.8,3.801-9.6,0-13.4c-3.799-3.8-9.6-3.8-13.398,0L451.35,80.3
			c-3.801,3.8-3.801,9.6,0,13.4C455.15,97.5,460.949,97.5,464.75,93.7z"/>
		<path d="M172.15,478.1c0,0-47.8,45.9-47.8,74.601c0,21,15.3,40.2,47.8,40.2s47.8-21,47.8-40.2
			C219.95,524,172.15,478.1,172.15,478.1z M172.15,573.8c-15.3,0-28.7-5.7-28.7-23c0-13.399,28.7-44,28.7-44s28.7,30.601,28.7,44
			C200.85,566.1,187.45,573.8,172.15,573.8z"/>
		<path d="M306.049,497.2c0,0-47.8,45.899-47.8,74.6c0,21,15.3,40.2,47.8,40.2s47.8-21,47.8-40.2
			C353.85,543.1,306.049,497.2,306.049,497.2z M306.049,592.9c-15.3,0-28.7-5.7-28.7-23c0-13.4,28.7-44,28.7-44
			s28.701,30.6,28.701,44C334.65,585.2,321.35,592.9,306.049,592.9z"/>
		<path d="M506.85,275.4c0-32.5-15.301-61.2-38.199-80.3c0-3.8,0-9.6,0-13.4c0-57.4-47.801-105.2-105.201-105.2
			c-42.1,0-78.399,24.9-95.6,61.2c-9.6-1.9-19.1-3.8-28.7-3.8c-74.6,0-133.9,59.3-133.9,133.9c0,1.9,0,5.7,0,7.6
			c-34.4,15.3-57.4,47.8-57.4,88c0,53.5,42.1,95.6,95.6,95.6h325.099c53.5,0,95.602-42.1,95.602-95.6
			C564.25,323.2,541.25,290.7,506.85,275.4z M363.35,95.6c47.801,0,86.1,38.2,86.1,86.1v1.9c-15.299-7.7-30.6-11.5-47.799-11.5
			c-21,0-38.201,5.7-55.5,15.3c-15.301-21-36.301-36.3-59.301-45.9C300.25,114.8,330.85,95.6,363.35,95.6z M468.549,439.9H143.45
			c-42.1,0-76.5-34.4-76.5-76.5c0-36.301,24.9-66.9,59.3-74.601c-1.9-7.7-1.9-13.4-1.9-21c0-63.1,51.6-114.8,114.8-114.8
			c44,0,84.1,24.9,103.299,63.1c15.301-15.3,36.301-24.9,59.301-24.9c47.799,0,86.1,38.2,86.1,86.1c0,3.8,0,7.6,0,11.5
			c32.5,7.6,57.4,38.2,57.4,74.601C545.049,405.5,510.65,439.9,468.549,439.9z"/>
		<path d="M439.85,478.1c0,0-47.801,45.9-47.801,74.601c0,21,15.301,40.2,47.801,40.2s47.801-21,47.801-40.2
			C487.65,524,439.85,478.1,439.85,478.1z M439.85,573.8c-15.301,0-28.699-5.7-28.699-23c0-13.399,28.699-44,28.699-44
			s28.699,30.601,28.699,44C468.549,566.1,455.15,573.8,439.85,573.8z"/>
	</g>
</g>
<g>
</g>
<g>
</g>
<g>
</g>
<g>
</g>
<g>
</g>
<g>
</g>
<g>
</g>
<g>
</g>
<g>
</g>
<g>
</g>
<g>
</g>
<g>
</g>
<g>
</g>
<g>
</g>
<g>
</g>
</svg>
